<svg width="750" height="500" viewBox="0 0 750 500" fill="none" xmlns="http://www.w3.org/2000/svg">
    <path d="M219.883 122.262L107.682 197.317L218.2 362.531L330.4 287.476L219.883 122.262Z" fill="#F5F5F5"/>
    <path d="M272.42 279.659L271.15 287.539L215.37 279.499L216.64 271.619L272.42 279.659Z" fill="#E0E0E0"/>
    <path d="M244.33 251.551L252.33 252.701L243.46 307.621L235.45 306.461L244.33 251.551Z" fill="#E0E0E0"/>
    <path d="M193 181.749C193.08 181.859 181.84 189.529 167.89 198.849C153.94 208.169 142.57 215.649 142.49 215.529C142.41 215.409 153.65 207.749 167.6 198.419C181.55 189.089 192.87 181.629 193 181.749Z" fill="#E0E0E0"/>
    <path d="M234.22 171.39C234.3 171.51 215.6 184.15 192.46 199.63C169.32 215.11 150.46 227.56 150.4 227.45C150.34 227.34 169 214.68 192.17 199.2C215.34 183.72 234.14 171.27 234.22 171.39Z" fill="#E0E0E0"/>
    <path d="M242.49 183.751C242.57 183.871 223.87 196.521 200.73 212.001C177.59 227.481 158.73 239.931 158.67 239.811C158.61 239.691 177.29 227.051 200.44 211.561C223.59 196.071 242.41 183.631 242.49 183.751Z" fill="#E0E0E0"/>
    <path d="M250.76 196.12C250.84 196.24 232.14 208.89 209 224.36C185.86 239.83 167 252.3 167 252.18C167 252.06 185.61 239.41 208.76 223.93C231.91 208.45 250.68 196 250.76 196.12Z" fill="#E0E0E0"/>
    <path d="M259 208.489C259.08 208.609 240.38 221.249 217.24 236.729C194.1 252.209 175.24 264.659 175.19 264.539C175.14 264.419 193.83 251.779 217 236.299C240.17 220.819 259 208.369 259 208.489Z" fill="#E0E0E0"/>
    <path d="M595.069 232.967L500.839 296.001L593.653 434.75L687.883 371.715L595.069 232.967Z" fill="#F5F5F5"/>
    <path d="M639.2 365.18L638.13 371.8L591.28 365.05L592.36 358.43L639.2 365.18Z" fill="#E0E0E0"/>
    <path d="M615.61 341.57L622.33 342.54L614.88 388.66L608.15 387.69L615.61 341.57Z" fill="#E0E0E0"/>
    <path d="M572.46 282.999C572.54 283.119 563.11 289.569 551.39 297.399C539.67 305.229 530.11 311.489 530.03 311.399C529.95 311.309 539.39 304.839 551.1 296.999C562.81 289.159 572.38 282.829 572.46 282.999Z" fill="#E0E0E0"/>
    <path d="M607.11 274.249C607.19 274.369 591.5 285.009 572.11 297.999C552.72 310.989 536.85 321.449 536.77 321.329C536.69 321.209 552.38 310.569 571.77 297.569C591.16 284.569 607 274.129 607.11 274.249Z" fill="#E0E0E0"/>
    <path d="M614.06 284.63C614.14 284.75 598.45 295.39 579.06 308.39C559.67 321.39 543.8 331.83 543.72 331.71C543.64 331.59 559.28 321 578.72 308C598.16 295 614 284.52 614.06 284.63Z" fill="#E0E0E0"/>
    <path d="M621 295.001C621.08 295.121 605.38 305.761 586 318.761C566.62 331.761 550.74 342.201 550.66 342.081C550.58 341.961 566.27 331.331 585.66 318.321C605.05 305.311 620.93 294.901 621 295.001Z" fill="#E0E0E0"/>
    <path d="M628 305.409C628.08 305.529 612.39 316.159 593 329.159C573.61 342.159 557.74 352.599 557.66 352.489C557.58 352.379 573.27 341.729 592.66 328.729C612.05 315.729 627.87 305.289 628 305.409Z" fill="#E0E0E0"/>
    <path d="M445.992 128.339L343.174 73.3477L262.2 224.744L365.018 279.735L445.992 128.339Z" fill="#F5F5F5"/>
    <path d="M347.42 232.37L340.9 234.6L324.34 188.83L330.87 186.59L347.42 232.37Z" fill="#E0E0E0"/>
    <path d="M357.42 199.529L359.8 206.099L314.34 221.669L311.96 215.099L357.42 199.529Z" fill="#E0E0E0"/>
    <path d="M389.72 131.999C389.64 132.149 379.22 126.729 366.43 119.899C353.64 113.069 343.35 107.399 343.43 107.249C343.51 107.099 353.94 112.519 366.73 119.349C379.52 126.179 389.8 131.839 389.72 131.999Z" fill="#E0E0E0"/>
    <path d="M414.4 159.23C414.32 159.38 397.06 150.3 375.85 138.96C354.64 127.62 337.52 118.3 337.6 118.15C337.68 118 354.93 127.07 376.14 138.42C397.35 149.77 414.48 159.08 414.4 159.23Z" fill="#E0E0E0"/>
    <path d="M408.34 170.56C408.26 170.71 391 161.64 369.79 150.29C348.58 138.94 331.46 129.63 331.54 129.48C331.62 129.33 348.87 138.41 370.08 149.75C391.29 161.09 408.42 170.41 408.34 170.56Z" fill="#E0E0E0"/>
    <path d="M402.28 181.889C402.2 182.039 384.94 172.969 363.73 161.629C342.52 150.289 325.4 140.999 325.48 140.819C325.56 140.639 342.81 149.739 364.02 161.079C385.23 172.419 402.36 181.739 402.28 181.889Z" fill="#E0E0E0"/>
    <path d="M396.22 193.22C396.14 193.37 378.88 184.3 357.67 172.96C336.46 161.62 319.33 152.3 319.42 152.15C319.51 152 336.75 161.07 357.96 172.41C379.17 183.75 396.3 193.07 396.22 193.22Z" fill="#E0E0E0"/>
    <path opacity="0.2" d="M396.75 0H394.17V43.98H396.75V0Z" fill="black"/>
    <path d="M335.23 97.19H455.69C455.69 97.19 444.57 44 394.55 44C350.06 44 335.23 97.19 335.23 97.19Z" fill="#2691EA"/>
    <path d="M396.75 0H394.17V43.98H396.75V0Z" fill="#2691EA"/>
    <path d="M663.67 439.83C663.67 439.97 534.42 440.09 375.01 440.09C215.6 440.09 86.3301 440 86.3301 439.83C86.3301 439.66 215.56 439.57 375.01 439.57C534.46 439.57 663.67 439.68 663.67 439.83Z" fill="#263238"/>
    <path d="M118.29 377.199C119.981 377.321 121.629 377.783 123.138 378.556C124.646 379.329 125.984 380.398 127.07 381.699C129.23 384.317 130.759 387.397 131.54 390.699C133.23 397.019 132.19 404.489 130.39 410.779C123.55 408.329 119.32 401.029 117.39 397.189C114.39 391.129 112.6 378.329 118.26 377.189" fill="#2691EA"/>
    <path d="M140.24 418.449C139.213 416.856 138.625 415.02 138.538 413.126C138.45 411.233 138.865 409.35 139.74 407.669C140.643 406.004 141.868 404.535 143.345 403.349C144.821 402.162 146.519 401.282 148.34 400.759C150.01 400.239 151.95 400.029 153.4 400.999C154.054 401.493 154.563 402.154 154.874 402.912C155.185 403.67 155.287 404.498 155.17 405.309C154.907 406.934 154.217 408.459 153.17 409.729C149.84 414.239 145.8 417.989 140.17 418.449" fill="#2691EA"/>
    <path d="M141 439.579C140.851 439.154 140.748 438.715 140.69 438.269C140.51 437.329 140.27 436.119 139.98 434.669C139.082 430.699 138.832 426.609 139.24 422.559C139.711 418.489 141.261 414.619 143.73 411.349C144.484 410.371 145.354 409.488 146.32 408.719C146.582 408.511 146.856 408.317 147.14 408.139C147.23 408.064 147.331 408.003 147.44 407.959C146.175 409.04 145.019 410.242 143.99 411.549C141.652 414.822 140.179 418.634 139.71 422.629C139.07 427.289 139.86 431.559 140.32 434.629C140.56 436.159 140.76 437.399 140.87 438.259C140.949 438.695 140.992 439.136 141 439.579Z" fill="#263238"/>
    <path d="M120.49 386.83C120.604 386.988 120.698 387.159 120.77 387.34C120.95 387.74 121.19 388.24 121.47 388.87C122.08 390.2 122.93 392.13 123.96 394.52C126.02 399.31 128.78 405.97 131.66 413.39C134.54 420.81 136.99 427.58 138.66 432.51C139.52 434.97 140.19 436.97 140.66 438.36C140.87 439.02 141.03 439.55 141.16 439.96C141.231 440.144 141.282 440.335 141.31 440.53C141.209 440.36 141.128 440.179 141.07 439.99C140.92 439.59 140.73 439.07 140.48 438.42L138.37 432.62C136.58 427.73 134.08 420.97 131.21 413.56C128.34 406.15 125.62 399.47 123.64 394.65C122.64 392.28 121.87 390.35 121.3 388.94C121.04 388.3 120.83 387.79 120.67 387.38C120.595 387.202 120.535 387.018 120.49 386.83Z" fill="#263238"/>
    <path d="M132.87 425.6C130.812 422.174 127.969 419.287 124.574 417.178C121.18 415.068 117.333 413.797 113.35 413.47C111.35 413.33 108.89 413.67 107.99 415.47C107.09 417.27 108.29 419.47 109.67 420.93C112.602 423.997 116.376 426.127 120.518 427.053C124.659 427.978 128.981 427.657 132.94 426.13" fill="#2691EA"/>
    <path d="M116.43 418.89C116.854 418.869 117.279 418.885 117.7 418.94C118.193 418.966 118.684 419.023 119.17 419.11C119.74 419.22 120.41 419.28 121.11 419.48C121.892 419.645 122.664 419.859 123.42 420.12C124.296 420.401 125.154 420.735 125.99 421.12C127.912 421.981 129.731 423.058 131.41 424.33C133.07 425.632 134.573 427.122 135.89 428.77C136.459 429.487 136.983 430.238 137.46 431.02C137.891 431.694 138.285 432.392 138.64 433.11C138.94 433.694 139.208 434.295 139.44 434.91C139.64 435.365 139.811 435.832 139.95 436.31C140.098 436.708 140.209 437.12 140.28 437.54C140.17 437.54 139.69 435.82 138.34 433.26C137.972 432.572 137.568 431.904 137.13 431.26C136.643 430.502 136.115 429.771 135.55 429.07C132.934 425.838 129.599 423.262 125.81 421.55C124.94 421.17 124.11 420.81 123.3 420.55C122.556 420.279 121.799 420.048 121.03 419.86C118.23 419.09 116.42 419 116.43 418.89Z" fill="#263238"/>
    <path d="M570.36 105.48C567.42 106.15 565.99 109.54 565.71 112.54C565.43 115.54 565.81 118.72 564.55 121.46C563.13 124.54 559.74 126.82 559.63 130.21C559.56 132.28 560.79 134.21 560.73 136.3C560.63 139.7 557.17 142.3 556.98 145.66C556.85 148.11 558.48 150.45 558.09 152.87C557.79 154.75 556.32 156.23 555.7 158.03C554.47 161.63 556.94 165.58 560.15 167.6C561.948 168.731 563.972 169.455 566.079 169.723C568.186 169.99 570.327 169.794 572.351 169.148C574.374 168.503 576.233 167.423 577.796 165.985C579.359 164.546 580.589 162.784 581.4 160.82C583.18 156.5 582.79 151.63 582.4 146.98C581.2 132.474 580.307 117.947 579.72 103.4" fill="#263238"/>
    <path d="M561.82 156.66C562.425 156.284 562.897 155.728 563.17 155.07C563.459 154.287 563.575 153.452 563.51 152.62C563.401 151.517 563.155 150.433 562.78 149.39C562.302 148.08 562.124 146.678 562.26 145.29C562.51 143.73 563.63 142.45 564.64 141.19C565.184 140.573 565.638 139.883 565.99 139.14C566.342 138.388 566.4 137.532 566.15 136.74C565.63 135.11 564.03 133.91 563.3 132.02C562.957 131.084 562.901 130.068 563.14 129.1C563.367 128.193 563.703 127.317 564.14 126.49C564.984 125.002 565.655 123.421 566.14 121.78C566.84 118.61 566.51 115.58 566.99 113.09C567.256 111.096 568.141 109.235 569.52 107.77C569.91 107.375 570.355 107.039 570.84 106.77C571.007 106.683 571.186 106.619 571.37 106.58C570.743 106.925 570.168 107.356 569.66 107.86C568.383 109.34 567.578 111.169 567.35 113.11C567.175 114.436 567.081 115.772 567.07 117.11C567.067 118.685 566.913 120.255 566.61 121.8C566.133 123.479 565.462 125.097 564.61 126.62C563.86 128.19 563.17 130.03 563.83 131.75C564.49 133.47 566.08 134.66 566.69 136.5C566.965 137.409 566.898 138.388 566.5 139.25C566.11 140.068 565.605 140.826 565 141.5C564 142.76 562.91 143.96 562.67 145.36C562.53 146.688 562.687 148.03 563.13 149.29C563.487 150.365 563.709 151.48 563.79 152.61C563.839 153.48 563.685 154.35 563.34 155.15C563.125 155.652 562.78 156.087 562.34 156.41C562.184 156.525 562.007 156.609 561.82 156.66Z" fill="#455A64"/>
    <path d="M554 180.369L545 206.369L507.36 208.369L501.08 222.369L540.38 226.369C542.237 227.131 544.229 227.509 546.236 227.48C548.243 227.451 550.223 227.015 552.057 226.199C553.891 225.383 555.54 224.204 556.905 222.733C558.27 221.262 559.323 219.529 560 217.639L570.49 188.359L554 180.369Z" fill="#B78876"/>
    <path d="M631.81 425.7C631.81 425.7 604.23 338.08 603.64 335.24C603.11 332.66 613.64 269.61 614.98 253.24L577.71 254.63V255L561.87 255.88L576.05 435H593.2L591.5 375.55C602.08 403.94 617.24 432.88 617.24 432.88L631.81 425.7Z" fill="#B78876"/>
    <path d="M592.2 396.879C592.2 396.339 591.99 376.959 591.99 376.959C591.78 378.119 585.42 360.139 585.57 359.049C585.65 358.479 592.2 396.879 592.2 396.879Z" fill="#A36957"/>
    <path d="M584.85 350.529C584.762 350.886 584.725 351.253 584.74 351.619C584.685 352.619 584.685 353.62 584.74 354.619C584.74 355.249 584.83 355.929 584.91 356.669C584.99 357.409 585.1 358.189 585.27 358.999C585.626 360.768 586.097 362.512 586.68 364.219C587.92 367.849 589.3 371.019 590.27 373.319C590.73 374.319 591.13 375.269 591.47 376.029C591.593 376.383 591.761 376.719 591.97 377.029C591.917 376.684 591.816 376.347 591.67 376.029C591.44 375.369 591.09 374.419 590.67 373.249C589.79 370.909 588.47 367.709 587.24 364.119C586.658 362.437 586.181 360.72 585.81 358.979C585.63 358.179 585.51 357.409 585.4 356.689C585.29 355.969 585.21 355.289 585.16 354.689C585.04 353.449 584.99 352.449 584.96 351.749C584.979 351.34 584.942 350.929 584.85 350.529Z" fill="#A36957"/>
    <path d="M575.73 435.909V434.299L593.3 433.529L593.35 440.179L592.27 440.249C587.44 440.529 567.72 441.349 564.5 440.379C560.89 439.299 575.73 435.909 575.73 435.909Z" fill="#455A64"/>
    <path d="M593.58 439.779C593.48 439.786 593.38 439.786 593.28 439.779L592.42 439.839L589.24 439.979C586.56 440.089 582.85 440.189 578.76 440.209C574.67 440.229 570.95 440.159 568.26 440.079L565.09 439.949H564.22H563.92C564.02 439.941 564.12 439.941 564.22 439.949H565.09L568.27 440.009C570.95 440.009 574.66 440.089 578.75 440.069C582.84 440.049 586.56 439.979 589.24 439.909L592.42 439.829H593.58V439.779Z" fill="#263238"/>
    <path d="M570 440.339C569.854 439.816 569.653 439.31 569.4 438.829C569.084 438.386 568.718 437.98 568.31 437.619C568.856 437.814 569.309 438.207 569.58 438.719C569.911 439.191 570.06 439.766 570 440.339Z" fill="#263238"/>
    <path d="M575.18 437.71C575.18 437.71 574.89 437.44 574.63 437.04C574.37 436.64 574.21 436.29 574.26 436.26C574.31 436.23 574.55 436.52 574.81 436.92C575.07 437.32 575.23 437.68 575.18 437.71Z" fill="#263238"/>
    <path d="M576.6 437.001C576.6 437.051 576.28 436.861 575.98 436.591C575.68 436.321 575.46 436.071 575.5 436.031C575.54 435.991 575.82 436.171 576.12 436.441C576.42 436.711 576.64 436.911 576.6 437.001Z" fill="#263238"/>
    <path d="M577.49 435.3C577.196 435.408 576.882 435.449 576.57 435.42C576.264 435.46 575.952 435.43 575.66 435.33C575.951 435.223 576.261 435.182 576.57 435.21C576.879 435.168 577.194 435.198 577.49 435.3Z" fill="#263238"/>
    <path d="M577.79 434.139C577.492 434.333 577.145 434.437 576.79 434.439C576.45 434.484 576.105 434.436 575.79 434.299C576.12 434.244 576.455 434.217 576.79 434.219C577.12 434.161 577.455 434.134 577.79 434.139Z" fill="#263238"/>
    <path d="M574.59 436.181C574.217 436.251 573.834 436.251 573.46 436.181C573.056 436.132 572.658 436.045 572.27 435.921C572.03 435.854 571.799 435.76 571.58 435.641C571.447 435.562 571.347 435.438 571.3 435.291C571.282 435.207 571.288 435.12 571.318 435.04C571.348 434.961 571.401 434.891 571.47 434.841C571.747 434.707 572.05 434.636 572.358 434.633C572.666 434.63 572.97 434.696 573.25 434.825C573.529 434.954 573.776 435.143 573.973 435.38C574.171 435.616 574.313 435.893 574.39 436.191C574.41 436.29 574.41 436.392 574.39 436.491C574.277 436.129 574.101 435.791 573.87 435.491C573.604 435.191 573.257 434.976 572.87 434.871C572.428 434.728 571.947 434.764 571.53 434.971C571.36 435.101 571.43 435.311 571.62 435.431C571.824 435.541 572.039 435.632 572.26 435.701C572.636 435.824 573.02 435.921 573.41 435.991C574.16 436.151 574.59 436.151 574.59 436.181Z" fill="#263238"/>
    <path d="M574.3 436.241C574.154 436.008 574.104 435.729 574.16 435.461C574.197 435.166 574.303 434.885 574.47 434.641C574.564 434.474 574.698 434.333 574.861 434.231C575.023 434.13 575.209 434.071 575.4 434.061C575.513 434.087 575.612 434.155 575.677 434.252C575.742 434.348 575.768 434.466 575.75 434.581C575.725 434.759 575.66 434.93 575.56 435.081C575.408 435.329 575.231 435.56 575.03 435.771C574.856 435.97 574.637 436.124 574.39 436.221C574.39 436.221 574.61 436.021 574.92 435.661C575.1 435.454 575.257 435.23 575.39 434.991C575.54 434.751 575.65 434.321 575.39 434.271C575.13 434.221 574.83 434.531 574.66 434.751C574.501 434.967 574.392 435.217 574.34 435.481C574.299 435.732 574.286 435.987 574.3 436.241Z" fill="#263238"/>
    <path d="M593.21 435.001C593.21 435.001 592.71 435.001 591.92 435.051C590.891 435.174 589.918 435.583 589.11 436.232C588.302 436.881 587.692 437.743 587.35 438.721C587.09 439.471 587.07 439.981 587.03 439.971C586.99 439.961 587.03 439.841 587.03 439.621C587.056 439.299 587.116 438.98 587.21 438.671C587.528 437.647 588.14 436.74 588.97 436.061C589.81 435.394 590.831 434.994 591.9 434.911C592.232 434.871 592.568 434.871 592.9 434.911C593.007 434.927 593.111 434.958 593.21 435.001Z" fill="#263238"/>
    <path d="M584.8 438.38C583.961 438.575 583.101 438.659 582.24 438.63C581.384 438.673 580.526 438.599 579.69 438.41C579.69 438.35 580.83 438.41 582.24 438.41C583.65 438.41 584.79 438.32 584.8 438.38Z" fill="#263238"/>
    <path d="M588.22 438.349C588.22 438.349 588.13 438.589 588.01 438.849C587.89 439.109 587.83 439.349 587.77 439.339C587.71 439.329 587.68 439.069 587.82 438.759C587.96 438.449 588.18 438.299 588.22 438.349Z" fill="#263238"/>
    <path d="M589.51 436.741C589.51 436.741 589.44 436.961 589.26 437.141C589.08 437.321 588.9 437.441 588.85 437.401C588.8 437.361 588.92 437.181 589.1 436.991C589.28 436.801 589.46 436.691 589.51 436.741Z" fill="#263238"/>
    <path d="M591.35 436C591.35 436.06 591.11 436.06 590.85 436.15C590.59 436.24 590.41 436.38 590.36 436.34C590.31 436.3 590.46 436.06 590.78 435.95C591.1 435.84 591.37 435.94 591.35 436Z" fill="#263238"/>
    <path d="M592.66 435.639C592.66 435.699 592.59 435.789 592.44 435.839C592.29 435.889 592.16 435.899 592.14 435.839C592.12 435.779 592.22 435.689 592.36 435.639C592.5 435.589 592.64 435.589 592.66 435.639Z" fill="#263238"/>
    <path d="M616.89 434.36L616.23 432.89L631.94 425L634.71 431L633.71 431.51C629.42 433.74 611.77 442.56 608.43 443C604.74 443.53 616.89 434.36 616.89 434.36Z" fill="#455A64"/>
    <path d="M634.77 430.57L634.51 430.73L633.74 431.13L630.9 432.57C628.5 433.76 625.16 435.37 621.43 437.07C617.7 438.77 614.28 440.22 611.8 441.25L608.85 442.44L608.05 442.75C607.958 442.793 607.86 442.823 607.76 442.84L608.03 442.71L608.82 442.36L611.74 441.11C614.21 440.05 617.61 438.57 621.34 436.87C625.07 435.17 628.42 433.59 630.84 432.43L633.7 431.06L634.49 430.69L634.77 430.57Z" fill="#263238"/>
    <path d="M613.52 440.74C613.174 440.318 612.781 439.935 612.35 439.6C611.881 439.322 611.381 439.1 610.86 438.94C611.434 438.932 611.997 439.1 612.473 439.422C612.948 439.744 613.314 440.204 613.52 440.74Z" fill="#263238"/>
    <path d="M617.13 436.22C617.13 436.22 616.75 436.1 616.35 435.84C615.95 435.58 615.66 435.33 615.69 435.28C615.72 435.23 616.07 435.4 616.47 435.66C616.87 435.92 617.16 436.17 617.13 436.22Z" fill="#263238"/>
    <path d="M618.11 434.999C618.11 435.049 617.77 434.999 617.38 434.879C616.99 434.759 616.7 434.609 616.71 434.549C616.963 434.526 617.218 434.567 617.45 434.67C617.83 434.76 618.13 434.899 618.11 434.999Z" fill="#263238"/>
    <path d="M618.25 433.08C618.25 433.14 617.92 433.35 617.46 433.57C617.195 433.729 616.898 433.828 616.59 433.86C616.59 433.8 616.92 433.59 617.37 433.37C617.639 433.211 617.939 433.113 618.25 433.08Z" fill="#263238"/>
    <path d="M618.05 431.9C618.05 431.9 617.76 432.3 617.24 432.59C616.945 432.79 616.596 432.895 616.24 432.89C616.527 432.698 616.831 432.534 617.15 432.4C617.64 432.13 618 431.85 618.05 431.9Z" fill="#263238"/>
    <path d="M616 435.08C615.695 435.289 615.357 435.445 615 435.54C614.607 435.655 614.206 435.738 613.8 435.79C613.554 435.821 613.306 435.821 613.06 435.79C612.906 435.778 612.762 435.707 612.66 435.59C612.614 435.519 612.589 435.435 612.589 435.35C612.589 435.265 612.614 435.181 612.66 435.11C612.964 434.742 613.387 434.49 613.855 434.399C614.324 434.308 614.81 434.383 615.23 434.61C615.478 434.74 615.696 434.921 615.87 435.14C615.99 435.3 616.04 435.4 616.03 435.41C615.784 435.135 615.489 434.908 615.16 434.74C614.808 434.575 614.415 434.516 614.03 434.57C613.801 434.594 613.579 434.663 613.376 434.772C613.174 434.882 612.995 435.031 612.85 435.21C612.74 435.4 612.85 435.56 613.12 435.59C613.35 435.61 613.58 435.61 613.81 435.59C614.208 435.55 614.603 435.48 614.99 435.38C615.56 435.22 616 435.05 616 435.08Z" fill="#263238"/>
    <path d="M615.72 435.249C615.497 435.091 615.34 434.856 615.28 434.589C615.192 434.308 615.171 434.01 615.22 433.719C615.237 433.527 615.303 433.343 615.412 433.184C615.52 433.024 615.668 432.895 615.84 432.809C616.09 432.729 616.67 433.239 616.71 433.429C616.75 433.619 616.42 433.519 616.4 433.679C616.368 433.963 616.3 434.242 616.2 434.509C616.127 434.766 615.989 435.001 615.8 435.189C615.8 435.189 615.92 434.919 616.06 434.469C616.132 434.204 616.182 433.933 616.21 433.659C616.21 433.379 616.21 432.949 615.89 433.019C615.57 433.089 615.48 433.479 615.41 433.759C615.349 434.019 615.349 434.289 615.41 434.549C615.493 434.791 615.596 435.025 615.72 435.249Z" fill="#263238"/>
    <path d="M632.47 426.359C632.47 426.359 631.99 426.529 631.31 426.939C630.421 427.471 629.697 428.24 629.22 429.159C628.757 430.088 628.56 431.126 628.65 432.159C628.71 432.959 628.9 433.419 628.86 433.439C628.795 433.34 628.745 433.233 628.71 433.119C628.611 432.813 628.541 432.499 628.5 432.179C628.357 431.114 628.541 430.031 629.029 429.074C629.517 428.116 630.284 427.33 631.23 426.819C631.513 426.663 631.811 426.535 632.12 426.439C632.232 426.396 632.35 426.369 632.47 426.359Z" fill="#263238"/>
    <path d="M626.18 432.899C624.77 433.88 623.195 434.598 621.53 435.019C621.53 434.959 622.58 434.559 623.86 434.019C625.14 433.479 626.15 432.849 626.18 432.899Z" fill="#263238"/>
    <path d="M629.29 431.469C629.34 431.469 629.29 431.719 629.29 432.009C629.29 432.299 629.29 432.539 629.29 432.559C629.29 432.579 629.09 432.339 629.09 432.009C629.09 431.679 629.24 431.439 629.29 431.469Z" fill="#263238"/>
    <path d="M629.8 429.47C629.85 429.47 629.8 429.7 629.74 429.94C629.68 430.18 629.53 430.36 629.48 430.34C629.43 430.32 629.48 430.11 629.54 429.87C629.6 429.63 629.74 429.45 629.8 429.47Z" fill="#263238"/>
    <path d="M631.18 428.001C631.18 428.061 630.98 428.151 630.78 428.341C630.58 428.531 630.47 428.731 630.42 428.711C630.37 428.691 630.42 428.411 630.64 428.181C630.86 427.951 631.17 428.001 631.18 428.001Z" fill="#263238"/>
    <path d="M632.23 427.18C632.23 427.18 632.23 427.34 632.11 427.45C631.99 427.56 631.88 427.62 631.84 427.58C631.8 427.54 631.84 427.42 631.96 427.31C632.08 427.2 632.19 427.14 632.23 427.18Z" fill="#263238"/>
    <path d="M612.56 223.64L609.64 187.94L624.64 188.21C624.64 188.21 625.33 182.94 623.12 171.4C621.76 164.32 617.05 159.98 611.76 157.4V157.3L611.3 157.18C606.945 155.225 602.295 154.011 597.54 153.59L579.09 153.8C579.09 153.8 565 152 557.23 162.09C554.23 165.96 544.92 192.45 544.92 192.45L567.07 203.11L565 188.42C565 188.42 565.42 199.07 566.78 202.42C567.53 204.3 569.78 210.14 569.78 210.14L569.49 227.76L612.56 223.64Z" fill="#2691EA"/>
    <path d="M602.39 182.759L599.65 194.419H625.48L623.78 174.859L602.39 182.759Z" fill="#2691EA"/>
    <path d="M625.48 194.42C624.351 194.212 623.208 194.098 622.06 194.08C619.94 193.96 617.06 193.85 613.78 193.87C610.5 193.89 607.61 194.03 605.49 194.19C604.343 194.229 603.202 194.37 602.08 194.61C603.225 194.701 604.375 194.701 605.52 194.61C607.63 194.54 610.52 194.46 613.78 194.45C617.04 194.44 619.93 194.45 622.05 194.5C623.194 194.564 624.341 194.537 625.48 194.42Z" fill="#263238"/>
    <path d="M601.27 174.77C601.147 175.765 601.12 176.769 601.19 177.77C601.19 179.6 601.27 182.12 601.38 184.91C601.49 187.7 601.62 190.23 601.74 192.05C601.745 193.058 601.852 194.063 602.06 195.05C602.183 194.054 602.21 193.05 602.14 192.05C602.14 190.22 602.06 187.69 601.95 184.9C601.84 182.11 601.71 179.59 601.59 177.76C601.586 176.755 601.479 175.753 601.27 174.77Z" fill="#263238"/>
    <g opacity="0.3">
        <path opacity="0.3" d="M577.77 184.869C577.77 184.869 583.51 227.439 599.65 226.309C599.65 226.309 606.92 226.229 609.25 221.399V219.499L577.77 184.869Z" fill="black"/>
    </g>
    <g opacity="0.3">
        <path opacity="0.3" d="M601.27 177.279L598.18 198.149L600.18 201.809L603.48 194.649L602.08 194.609L601.27 177.279Z" fill="black"/>
    </g>
    <path d="M569.69 210.16C569.498 209.849 569.35 209.512 569.25 209.16C569 208.51 568.67 207.56 568.25 206.37C567.249 203.27 566.424 200.115 565.78 196.92C565.138 193.724 564.73 190.486 564.56 187.23C564.5 185.98 564.48 184.97 564.5 184.23C564.474 183.869 564.498 183.506 564.57 183.15C564.65 183.15 564.71 184.69 564.92 187.15C565.202 190.376 565.659 193.584 566.29 196.76C567.03 200.48 567.92 203.81 568.6 206.2C568.92 207.31 569.19 208.26 569.41 209.04C569.547 209.401 569.641 209.777 569.69 210.16Z" fill="#263238"/>
    <path d="M576.21 222.389C576.07 222.389 575.67 221.519 575.32 220.389C575.019 219.697 574.885 218.943 574.93 218.189C575.371 218.801 575.675 219.5 575.82 220.239C576.107 220.919 576.24 221.653 576.21 222.389Z" fill="#263238"/>
    <path d="M578.44 222.23C577.684 220.224 577.652 218.017 578.35 215.99C578.428 217.029 578.428 218.072 578.35 219.11C578.459 220.146 578.489 221.189 578.44 222.23Z" fill="#263238"/>
    <path d="M567.52 203.6C567.45 203.72 562.3 201.28 556.01 198.14C549.72 195 544.67 192.34 544.73 192.21C544.79 192.08 549.95 194.53 556.24 197.67C562.53 200.81 567.58 203.47 567.52 203.6Z" fill="#263238"/>
    <path d="M576.6 157.251C576.71 152.191 576.74 146.871 576.74 146.871C576.74 146.871 570.25 145.621 569.12 137.081C568.04 128.941 571.06 109.831 571.06 109.831C580.54 106.251 590.39 109.501 596.88 117.181L595.27 158.251C595.08 163.021 590.83 166.661 585.73 166.421C580.57 166.171 576.49 162.071 576.6 157.251Z" fill="#B78876"/>
    <path d="M570.56 125.101C570.551 125.381 570.65 125.654 570.836 125.864C571.022 126.074 571.281 126.206 571.56 126.231C571.702 126.245 571.845 126.229 571.981 126.186C572.117 126.142 572.242 126.072 572.35 125.978C572.458 125.885 572.545 125.77 572.607 125.642C572.669 125.513 572.704 125.373 572.71 125.231C572.719 124.952 572.62 124.68 572.434 124.471C572.248 124.263 571.989 124.134 571.71 124.111C571.568 124.089 571.422 124.099 571.284 124.139C571.145 124.178 571.017 124.248 570.908 124.342C570.798 124.436 570.711 124.552 570.651 124.683C570.591 124.814 570.56 124.957 570.56 125.101Z" fill="#263238"/>
    <path d="M570.16 123.67C570.29 123.81 571.16 123.22 572.31 123.26C573.46 123.3 574.31 123.9 574.45 123.76C574.59 123.62 574.39 123.44 574.02 123.15C573.519 122.787 572.918 122.588 572.3 122.58C571.691 122.557 571.091 122.732 570.59 123.08C570.22 123.35 570.09 123.6 570.16 123.67Z" fill="#263238"/>
    <path d="M582.47 125.839C582.459 126.12 582.557 126.395 582.743 126.605C582.929 126.816 583.19 126.946 583.47 126.969C583.613 126.991 583.76 126.981 583.899 126.941C584.038 126.9 584.167 126.83 584.276 126.735C584.386 126.64 584.473 126.522 584.533 126.39C584.592 126.258 584.622 126.114 584.62 125.969C584.631 125.689 584.533 125.416 584.347 125.207C584.16 124.998 583.9 124.87 583.62 124.849C583.478 124.828 583.332 124.837 583.194 124.877C583.055 124.917 582.927 124.986 582.818 125.08C582.708 125.174 582.621 125.291 582.561 125.422C582.501 125.553 582.47 125.695 582.47 125.839Z" fill="#263238"/>
    <path d="M582.39 124.41C582.52 124.56 583.39 123.97 584.54 124C585.69 124.03 586.54 124.64 586.69 124.5C586.84 124.36 586.62 124.18 586.25 123.9C585.757 123.527 585.158 123.324 584.54 123.32C583.928 123.301 583.327 123.476 582.82 123.82C582.46 124.09 582.33 124.34 582.39 124.41Z" fill="#263238"/>
    <path d="M577.91 133C577.296 132.789 576.658 132.658 576.01 132.61C575.71 132.61 575.43 132.5 575.39 132.3C575.366 131.988 575.443 131.676 575.61 131.41L576.55 129.16C577.425 127.248 578.144 125.268 578.7 123.24C577.676 125.078 576.8 126.994 576.08 128.97C575.77 129.76 575.46 130.52 575.17 131.24C574.976 131.597 574.912 132.011 574.99 132.41C575.029 132.519 575.093 132.617 575.176 132.696C575.26 132.776 575.36 132.836 575.47 132.87C575.636 132.918 575.807 132.945 575.98 132.95C576.619 133.049 577.267 133.065 577.91 133Z" fill="#263238"/>
    <path d="M576.74 146.869C580.741 147.029 584.708 146.077 588.2 144.119C588.2 144.119 585.29 149.889 576.8 148.879L576.74 146.869Z" fill="#A36957"/>
    <path d="M586.15 121C585.91 121.37 585.01 121.21 584.01 121C583.01 120.79 582.13 120.62 582.01 120.19C581.89 119.76 582.94 119.19 584.28 119.46C585.62 119.73 586.39 120.68 586.15 121Z" fill="#263238"/>
    <path d="M574.48 119.299C574.39 119.729 573.43 119.889 572.33 119.939C571.23 119.989 570.26 119.939 570.13 119.499C570 119.059 570.93 118.439 572.26 118.379C573.59 118.319 574.57 118.889 574.48 119.299Z" fill="#263238"/>
    <path d="M577.93 135.81C577.804 135.78 577.671 135.794 577.553 135.848C577.435 135.902 577.339 135.995 577.28 136.11C577.223 136.212 577.194 136.327 577.195 136.444C577.196 136.561 577.228 136.675 577.287 136.776C577.346 136.877 577.431 136.96 577.532 137.018C577.633 137.076 577.748 137.107 577.865 137.107C577.982 137.107 578.097 137.076 578.198 137.018C578.299 136.96 578.384 136.877 578.443 136.776C578.502 136.675 578.534 136.561 578.535 136.444C578.536 136.327 578.507 136.212 578.45 136.11C578.378 135.976 578.263 135.87 578.123 135.81C577.983 135.75 577.827 135.74 577.68 135.78" fill="#A36957"/>
    <path d="M578.2 135.93C578.2 135.88 578.01 135.59 577.5 135.7C577.348 135.74 577.208 135.819 577.096 135.93C576.984 136.041 576.902 136.179 576.86 136.33C576.806 136.522 576.811 136.725 576.873 136.914C576.936 137.103 577.053 137.269 577.21 137.39C577.377 137.504 577.573 137.565 577.775 137.565C577.977 137.565 578.174 137.504 578.34 137.39C578.473 137.301 578.578 137.175 578.641 137.028C578.705 136.881 578.726 136.719 578.7 136.56C578.6 136.03 578.21 135.95 578.19 136.02C578.17 136.09 578.33 136.27 578.3 136.58C578.293 136.657 578.268 136.731 578.226 136.795C578.184 136.86 578.127 136.913 578.06 136.95C577.983 136.995 577.895 137.019 577.805 137.019C577.716 137.019 577.628 136.995 577.55 136.95C577.48 136.891 577.427 136.815 577.396 136.729C577.364 136.643 577.355 136.551 577.37 136.46C577.382 136.381 577.412 136.306 577.459 136.242C577.506 136.178 577.568 136.126 577.64 136.09C577.92 135.92 578.17 136 578.2 135.93Z" fill="#263238"/>
    <path d="M593 127.211C592 129.551 589.52 131.361 589.86 133.891C590.08 135.521 591.13 137.041 590.93 138.681C590.67 140.681 588.54 142.161 588.23 144.211C587.86 146.721 590.31 148.671 591.28 151.011C592.71 154.431 590.89 158.271 590.84 162.011C590.899 164.85 591.985 167.572 593.897 169.672C595.81 171.772 598.418 173.107 601.24 173.431C603.52 173.621 606.09 172.931 607.24 170.971C608.24 169.351 608.02 167.291 608.6 165.501C609.48 162.821 612.03 160.861 612.6 158.101C613.6 153.101 607.5 148.901 607.9 143.781C608.07 141.591 609.42 139.691 609.99 137.571C610.353 136.178 610.381 134.718 610.072 133.312C609.762 131.906 609.124 130.593 608.21 129.481C606.7 127.691 604.52 126.481 603.21 124.561C601.76 122.351 601.71 119.561 601.21 116.951C600.539 113.778 599.074 110.828 596.953 108.375C594.831 105.923 592.123 104.048 589.08 102.926C586.038 101.805 582.761 101.473 579.555 101.961C576.349 102.45 573.32 103.743 570.75 105.721C570.75 105.721 569.3 112.311 576.07 113.421C582.84 114.531 585.97 113.251 586.73 115.961C586.551 117.077 586.639 118.22 586.986 119.296C587.334 120.372 587.932 121.35 588.73 122.151C591.49 125.131 594.12 124.491 593 127.211Z" fill="#263238"/>
    <path d="M603.75 172.921C603.542 172.928 603.333 172.908 603.13 172.861C602.544 172.757 601.968 172.599 601.41 172.391C599.345 171.599 597.534 170.261 596.17 168.521C595.214 167.319 594.463 165.968 593.95 164.521C593.366 162.873 593.058 161.139 593.04 159.391C593.019 157.463 593.262 155.542 593.76 153.681C594.033 152.697 594.367 151.732 594.76 150.791C595.173 149.853 595.537 148.896 595.85 147.921C596.125 146.96 596.125 145.941 595.85 144.981C595.557 144.035 595.179 143.118 594.72 142.241C594.256 141.371 593.865 140.464 593.55 139.531C593.242 138.606 593.17 137.62 593.34 136.661C593.74 134.781 594.88 133.381 595.56 131.951C596.208 130.627 596.517 129.163 596.46 127.691C596.369 125.536 595.587 123.467 594.23 121.791C593.704 121.203 593.14 120.652 592.54 120.141C593.241 120.535 593.868 121.049 594.39 121.661C595.847 123.335 596.705 125.445 596.83 127.661C596.913 129.197 596.61 130.73 595.95 132.121C595.26 133.601 594.15 135.011 593.81 136.731C593.47 138.451 594.28 140.261 595.17 142.001C595.655 142.903 596.051 143.851 596.35 144.831C596.645 145.877 596.645 146.984 596.35 148.031C596.017 149.039 595.633 150.031 595.2 151.001C594.807 151.922 594.473 152.867 594.2 153.831C593.704 155.645 593.458 157.519 593.47 159.401C593.439 162.605 594.473 165.728 596.41 168.281C597.705 170 599.43 171.348 601.41 172.191C602.9 172.771 603.76 172.861 603.75 172.921Z" fill="#455A64"/>
    <path d="M602.75 122.46C602.263 122.586 601.763 122.66 601.26 122.68C599.888 122.827 598.502 122.79 597.14 122.57C596.107 122.417 595.115 122.06 594.223 121.519C593.33 120.978 592.554 120.264 591.94 119.42C591.368 118.352 590.912 117.225 590.58 116.06C590.153 114.896 589.351 113.907 588.3 113.25C586.11 111.86 583.54 111.69 581.3 111.42C579.234 111.317 577.228 110.691 575.47 109.6C574.293 108.82 573.442 107.635 573.08 106.27C572.993 105.9 572.969 105.518 573.01 105.14C573.01 104.88 573.07 104.75 573.09 104.75C573.102 105.245 573.165 105.738 573.28 106.22C573.694 107.496 574.543 108.587 575.68 109.3C577.405 110.307 579.353 110.87 581.35 110.94C583.59 111.2 586.25 111.33 588.59 112.81C589.735 113.529 590.608 114.609 591.07 115.88C591.383 117.016 591.816 118.115 592.36 119.16C593.525 120.758 595.27 121.835 597.22 122.16C598.538 122.405 599.881 122.496 601.22 122.43C601.73 122.401 602.241 122.411 602.75 122.46Z" fill="#455A64"/>
    <path d="M600.27 114.32C599.893 114.446 599.497 114.503 599.1 114.49C597.236 114.502 595.441 113.784 594.1 112.49C593.488 111.876 592.966 111.179 592.55 110.42C591.65 108.9 590.78 107.03 588.91 106.25C587.108 105.645 585.189 105.477 583.31 105.76C581.724 105.983 580.116 105.983 578.53 105.76C577.427 105.607 576.388 105.15 575.53 104.44C575.308 104.246 575.113 104.024 574.95 103.78C574.83 103.606 574.78 103.516 574.8 103.51C574.8 103.51 575.08 103.83 575.66 104.28C576.515 104.888 577.508 105.273 578.55 105.4C580.107 105.575 581.68 105.548 583.23 105.32C585.191 104.999 587.201 105.171 589.08 105.82C590.046 106.254 590.873 106.946 591.47 107.82C591.997 108.599 592.481 109.407 592.92 110.24C593.314 110.967 593.802 111.639 594.37 112.24C594.872 112.748 595.449 113.176 596.08 113.51C597.01 113.995 598.033 114.278 599.08 114.34C599.85 114.33 600.26 114.27 600.27 114.32Z" fill="#455A64"/>
    <path d="M606.73 170.761C606.68 170.761 607 170.101 607.37 168.861C607.871 167.12 608.094 165.311 608.03 163.501C607.957 160.821 607.226 158.201 605.9 155.871C605.17 154.561 604.06 153.391 603.15 151.951C602.669 151.217 602.329 150.4 602.15 149.541C601.992 148.637 602.068 147.708 602.37 146.841C602.93 145.111 603.93 143.661 604.15 142.071C604.37 140.481 603.61 139.071 602.85 137.741C602.458 137.094 602.101 136.426 601.78 135.741C601.487 135.076 601.295 134.372 601.21 133.651C601.116 132.38 601.156 131.103 601.33 129.841C601.65 128.057 601.484 126.219 600.85 124.521C600.567 123.926 600.165 123.395 599.67 122.961C599.67 122.961 599.72 122.961 599.79 123.021C599.908 123.08 600.016 123.157 600.11 123.251C600.501 123.577 600.818 123.982 601.04 124.441C601.763 126.154 601.989 128.036 601.69 129.871C601.552 131.11 601.535 132.359 601.64 133.601C601.887 134.998 602.44 136.323 603.26 137.481C603.687 138.157 604.051 138.87 604.35 139.611C604.665 140.411 604.768 141.279 604.65 142.131C604.41 143.881 603.38 145.361 602.86 146.991C602.587 147.777 602.515 148.62 602.65 149.441C602.824 150.235 603.143 150.991 603.59 151.671C604.44 153.061 605.59 154.251 606.32 155.621C607.66 158.029 608.375 160.735 608.4 163.491C608.432 165.336 608.147 167.172 607.56 168.921C607.4 169.394 607.206 169.855 606.98 170.301C606.919 170.465 606.835 170.62 606.73 170.761Z" fill="#455A64"/>
    <path d="M566 357.09C566 357.09 559.26 293.25 558.87 269.66C558.48 246.07 569.48 222.79 569.48 222.79L612.56 221C612.56 221 621.08 244.93 621.23 255C621.53 274.54 616.04 293.83 616.67 309.33L618.11 357.13" fill="#263238"/>
    <path d="M619.56 278.6C619.335 278.795 619.098 278.975 618.85 279.14L618.46 279.41L618.04 279.82C617.67 280.14 617.335 280.499 617.04 280.89C615.65 282.59 614.64 285.64 613.67 289.43C613.175 291.532 612.443 293.571 611.49 295.51C611.2 296.04 610.866 296.546 610.49 297.02C610.31 297.26 610.14 297.52 609.93 297.75L609.27 298.41C608.325 299.293 607.227 299.998 606.03 300.49C603.62 301.55 600.89 302.05 598.41 303.3C595.869 304.667 593.906 306.903 592.88 309.6C591.66 312.31 590.88 315.15 589.88 317.81C588.88 320.47 587.53 323.01 585.38 324.63C583.324 326.058 580.883 326.829 578.38 326.84C576.06 326.98 573.91 326.91 571.98 327.2C570.243 327.38 568.583 328.007 567.16 329.02C566.121 329.832 565.343 330.93 564.92 332.18C564.652 332.968 564.593 333.812 564.75 334.63C564.87 335.19 565.02 335.46 564.99 335.47C564.829 335.219 564.714 334.941 564.65 334.65C564.439 333.815 564.467 332.939 564.73 332.12C565.127 330.808 565.912 329.648 566.98 328.79C568.439 327.689 570.165 326.999 571.98 326.79C573.98 326.47 576.11 326.51 578.4 326.36C580.83 326.344 583.198 325.59 585.19 324.2C587.211 322.434 588.703 320.142 589.5 317.58C590.5 314.95 591.23 312.1 592.5 309.34C593.576 306.532 595.628 304.207 598.28 302.79C600.86 301.51 603.59 301.02 605.94 300C607.091 299.523 608.147 298.846 609.06 298L609.69 297.37C609.89 297.15 610.06 296.9 610.24 296.67C610.593 296.215 610.904 295.73 611.17 295.22C612.128 293.308 612.869 291.296 613.38 289.22C614.38 285.44 615.47 282.35 616.94 280.64C617.233 280.25 617.568 279.894 617.94 279.58C618.1 279.44 618.24 279.3 618.38 279.19L618.79 278.93C619.04 278.804 619.297 278.694 619.56 278.6Z" fill="#FAFAFA"/>
    <path d="M619.82 249.061C619.866 249.341 619.886 249.626 619.88 249.911C619.877 250.736 619.776 251.559 619.58 252.361C618.719 255.286 617.027 257.898 614.71 259.881C613.181 261.287 611.504 262.524 609.71 263.571C607.78 264.711 605.65 265.801 603.46 267.041C601.16 268.274 599.017 269.782 597.08 271.531C595.093 273.502 593.456 275.799 592.24 278.321C591.014 280.877 589.614 283.346 588.05 285.711C587.255 286.813 586.336 287.819 585.31 288.711C584.299 289.571 583.187 290.306 582 290.901C579.852 291.956 577.613 292.816 575.31 293.471C573.17 294.131 571.17 294.721 569.43 295.471C567.851 296.099 566.348 296.904 564.95 297.871C563.898 298.6 562.953 299.472 562.14 300.461C561.46 301.318 560.892 302.259 560.45 303.261C560.521 302.983 560.615 302.713 560.73 302.451C561.058 301.695 561.478 300.983 561.98 300.331C562.778 299.3 563.721 298.39 564.78 297.631C566.184 296.63 567.697 295.791 569.29 295.131C571.216 294.346 573.182 293.661 575.18 293.081C577.45 292.411 579.658 291.548 581.78 290.501C582.906 289.913 583.962 289.202 584.93 288.381C585.917 287.502 586.802 286.516 587.57 285.441C589.112 283.087 590.499 280.635 591.72 278.101C592.975 275.523 594.666 273.181 596.72 271.181C598.691 269.405 600.875 267.881 603.22 266.641C605.42 265.411 607.55 264.341 609.48 263.211C611.269 262.199 612.945 260.998 614.48 259.631C616.777 257.708 618.483 255.173 619.4 252.321C619.657 251.252 619.797 250.159 619.82 249.061Z" fill="#FAFAFA"/>
    <path d="M559.09 273.001C559.05 272.939 559.02 272.872 559 272.801C558.925 272.608 558.862 272.411 558.81 272.211C558.639 271.415 558.673 270.589 558.91 269.811C559.47 267.811 561.68 265.241 565.24 263.971C567.02 263.361 569.03 262.971 571.13 262.451C572.874 262.162 574.523 261.46 575.941 260.404C577.359 259.348 578.504 257.969 579.28 256.381C579.849 255.215 580.346 254.016 580.77 252.791C581.552 250.129 582.614 247.558 583.94 245.121C585.459 242.725 587.764 240.933 590.46 240.051C592.913 239.255 595.415 238.62 597.95 238.151C600.213 237.716 602.404 236.969 604.46 235.931C606.202 234.936 607.704 233.57 608.86 231.931C610.568 229.564 611.541 226.747 611.66 223.831C611.665 222.761 611.594 221.691 611.45 220.631C611.752 221.67 611.89 222.749 611.86 223.831C611.821 226.81 610.88 229.708 609.16 232.141C607.989 233.834 606.455 235.245 604.67 236.271C602.586 237.348 600.361 238.126 598.06 238.581C595.548 239.058 593.07 239.696 590.64 240.491C588.052 241.339 585.839 243.06 584.38 245.361C583.076 247.765 582.027 250.299 581.25 252.921C580.818 254.169 580.307 255.388 579.72 256.571C579.128 257.707 578.373 258.752 577.48 259.671C575.724 261.272 573.562 262.362 571.23 262.821C569.11 263.361 567.11 263.701 565.36 264.281C561.89 265.461 559.69 267.891 559.1 269.831C558.858 270.579 558.793 271.373 558.91 272.151C558.995 272.428 559.055 272.713 559.09 273.001Z" fill="#FAFAFA"/>
    <path d="M616.12 327C616.161 327.208 616.184 327.418 616.19 327.63C616.209 328.236 616.145 328.841 616 329.43C615.372 331.598 614.042 333.497 612.22 334.83C611.003 335.799 609.657 336.594 608.22 337.19C606.69 337.84 605 338.36 603.22 338.91C601.372 339.45 599.565 340.118 597.81 340.91C595.987 341.781 594.353 343 593 344.5C591.54 346.02 590.28 347.69 588.88 349.17C587.541 350.604 585.985 351.818 584.27 352.77C581.351 354.363 578.085 355.214 574.76 355.25C572.533 355.274 570.319 354.905 568.22 354.16C567.65 353.964 567.095 353.726 566.56 353.45C566.365 353.369 566.18 353.265 566.01 353.14C566.212 353.195 566.409 353.266 566.6 353.35C567.149 353.585 567.71 353.792 568.28 353.97C570.375 354.627 572.565 354.934 574.76 354.88C578.012 354.796 581.195 353.928 584.04 352.35C585.702 351.409 587.209 350.218 588.51 348.82C589.88 347.36 591.13 345.7 592.62 344.14C594.053 342.584 595.78 341.327 597.7 340.44C599.481 339.645 601.315 338.977 603.19 338.44C604.95 337.9 606.63 337.44 608.19 336.78C609.585 336.209 610.897 335.452 612.09 334.53C613.882 333.264 615.218 331.455 615.9 329.37C616.047 328.589 616.121 327.795 616.12 327Z" fill="#FAFAFA"/>
    <path d="M611.21 194.459L602.87 194.659C602.549 196.341 601.911 197.946 600.99 199.389C593.99 187.289 588.62 171.089 587.28 164.579C587.48 163.929 587.71 163.209 588 162.409C588.208 161.194 588.17 159.95 587.89 158.749C587.65 157.299 587.25 155.349 587.13 154.449C586.76 151.689 586.31 151.259 585.35 151.569C584.05 151.999 585.89 159.299 584.82 159.459C584.24 159.539 583.54 157.039 583.34 154.989C583.14 152.939 582.2 146.619 581.53 146.199C580.53 145.579 579.66 146.559 579.92 148.599C580.18 150.639 580.49 156.839 579.41 156.929C578.33 157.019 577.41 146.539 577.41 146.539C577.41 146.539 577.58 144.259 576.32 144.309C574.06 144.409 575.83 155.449 576.02 156.499C576.16 157.219 575.02 157.359 574.88 156.569C574.74 155.779 574.22 146.099 571.88 146.179C570.1 146.179 573.25 155.269 572.25 157.369C571.25 159.469 570.57 150.249 568.88 150.369C568.25 150.419 567.78 150.539 568.94 155.749C570.051 159.889 571.386 163.965 572.94 167.959C575.62 182.409 587.38 228.639 605.81 220.179C616.13 215.439 620.31 194.459 620.31 194.459H611.21Z" fill="#B78876"/>
    <path d="M575.66 157.201C575.739 157.221 575.821 157.221 575.9 157.201C576.021 157.164 576.124 157.085 576.192 156.979C576.26 156.873 576.287 156.746 576.27 156.621C576.27 156.001 576.15 155.101 576.01 153.931C575.776 152.521 575.622 151.098 575.55 149.671C575.55 148.831 575.55 147.931 575.6 146.981C575.615 146.498 575.665 146.017 575.75 145.541C575.83 145.091 576.13 144.541 576.48 144.631H576.54C576.89 144.631 577.17 144.891 577.28 145.311C577.404 145.746 577.451 146.199 577.42 146.651C577.626 149.451 577.983 152.239 578.49 155.001C578.57 155.371 578.65 155.751 578.77 156.131C578.823 156.325 578.89 156.516 578.97 156.701C579.021 156.804 579.078 156.904 579.14 157.001C579.185 157.074 579.246 157.136 579.319 157.181C579.392 157.226 579.475 157.253 579.56 157.261C579.706 157.245 579.843 157.186 579.955 157.092C580.068 156.997 580.149 156.872 580.19 156.731C580.276 156.535 580.34 156.331 580.38 156.121C580.458 155.718 580.511 155.31 580.54 154.901C580.631 153.235 580.608 151.564 580.47 149.901C580.343 149.071 580.31 148.229 580.37 147.391C580.406 147.029 580.582 146.695 580.86 146.461C580.924 146.423 580.995 146.399 581.07 146.39C581.144 146.381 581.219 146.388 581.29 146.411C581.375 146.431 581.456 146.465 581.53 146.511C581.581 146.549 581.619 146.601 581.64 146.661C581.955 147.472 582.186 148.313 582.33 149.171C582.51 150.051 582.66 150.961 582.8 151.871C582.94 152.781 583.07 153.701 583.18 154.631C583.266 155.591 583.419 156.543 583.64 157.481C583.758 157.96 583.908 158.432 584.09 158.891C584.192 159.148 584.334 159.388 584.51 159.601C584.577 159.69 584.669 159.757 584.773 159.796C584.878 159.835 584.991 159.844 585.1 159.821C585.201 159.787 585.292 159.728 585.364 159.65C585.436 159.571 585.486 159.475 585.51 159.371C585.628 158.86 585.665 158.333 585.62 157.811C585.62 157.311 585.56 156.811 585.51 156.331C585.44 155.491 585.36 154.661 585.33 153.841C585.305 153.438 585.305 153.034 585.33 152.631C585.35 152.453 585.393 152.278 585.46 152.111C585.481 152.056 585.511 152.005 585.55 151.961H585.68C586.34 151.691 586.56 152.611 586.74 153.351C586.92 154.091 586.99 154.931 587.15 155.721C587.41 157.291 587.75 158.861 587.92 160.361C588.036 161.079 588.008 161.813 587.84 162.521C587.6 163.241 587.36 163.951 587.13 164.661V164.731V164.791C588.301 169.704 589.794 174.534 591.6 179.251C593.18 183.521 594.77 187.251 596.16 190.251C597.55 193.251 598.81 195.601 599.67 197.181L600.67 198.971C600.778 199.184 600.909 199.385 601.06 199.571C600.976 199.349 600.872 199.135 600.75 198.931L599.75 197.101C598.93 195.491 597.75 193.101 596.39 190.101C595.03 187.101 593.49 183.371 591.95 179.101C590.188 174.391 588.725 169.575 587.57 164.681V164.821C587.8 164.121 588.03 163.411 588.27 162.701C588.478 161.922 588.519 161.107 588.39 160.311C588.21 158.741 587.88 157.221 587.62 155.641C587.47 154.861 587.37 154.061 587.21 153.241C587.2 152.82 587.129 152.402 587 152.001C586.886 151.757 586.692 151.559 586.45 151.441C586.193 151.357 585.917 151.357 585.66 151.441H585.5C585.415 151.468 585.337 151.512 585.27 151.571C585.159 151.665 585.073 151.785 585.02 151.921C584.928 152.137 584.871 152.367 584.85 152.601C584.82 153.034 584.82 153.468 584.85 153.901C584.85 154.741 584.97 155.581 585.04 156.421C585.04 156.911 585.12 157.421 585.14 157.871C585.18 158.322 585.156 158.776 585.07 159.221C585.07 159.321 584.99 159.301 585.07 159.351L585.01 159.291C584.883 159.127 584.781 158.945 584.71 158.751C584.535 158.318 584.392 157.874 584.28 157.421C584.06 156.51 583.91 155.584 583.83 154.651C583.723 153.711 583.593 152.781 583.44 151.861C583.3 150.941 583.14 150.041 582.96 149.141C582.809 148.225 582.554 147.329 582.2 146.471C582.131 146.328 582.024 146.206 581.89 146.121C581.773 146.053 581.649 146 581.52 145.961C581.377 145.923 581.229 145.915 581.083 145.935C580.937 145.956 580.797 146.005 580.67 146.081C580.464 146.235 580.292 146.43 580.164 146.654C580.037 146.877 579.957 147.125 579.93 147.381C579.865 147.835 579.865 148.297 579.93 148.751C579.93 149.181 580.03 149.601 580.06 150.021C580.199 151.657 580.229 153.301 580.15 154.941C580.127 155.331 580.076 155.718 580 156.101C579.971 156.28 579.921 156.454 579.85 156.621C579.824 156.687 579.787 156.748 579.74 156.801C579.74 156.891 579.67 156.801 579.68 156.921C579.68 156.821 579.68 156.921 579.68 156.791C579.636 156.723 579.596 156.653 579.56 156.581C579.49 156.421 579.43 156.241 579.37 156.071C579.26 155.711 579.18 155.341 579.1 154.981C578.578 152.243 578.201 149.479 577.97 146.701C578 146.198 577.942 145.694 577.8 145.211C577.734 144.959 577.599 144.73 577.41 144.551C577.312 144.456 577.196 144.383 577.069 144.335C576.942 144.286 576.806 144.265 576.67 144.271H576.73C576.561 144.246 576.388 144.272 576.233 144.345C576.078 144.418 575.949 144.535 575.86 144.681C575.711 144.919 575.609 145.184 575.56 145.461C575.476 145.957 575.429 146.458 575.42 146.961C575.42 147.961 575.42 148.831 575.42 149.681C575.515 151.118 575.698 152.547 575.97 153.961C576.14 155.121 576.27 156.021 576.33 156.631C576.349 156.738 576.331 156.848 576.278 156.943C576.225 157.037 576.141 157.111 576.04 157.151C575.74 157.181 575.65 157.191 575.66 157.201Z" fill="#A36957"/>
    <path d="M510.53 208.229C508.579 208.188 506.63 208.413 504.74 208.899C499.57 210.259 490.66 215.659 490.29 222.329H496.77C496.77 222.329 493.14 230.049 494.2 229.329C496.97 227.469 502.47 221.879 502.47 221.879L510.53 208.229Z" fill="#B78876"/>
    <path d="M598.86 92C598.71 92 598.13 86.66 597.55 80C596.97 73.34 596.61 68 596.75 68C596.89 68 597.48 73.34 598.06 80C598.64 86.66 599 92 598.86 92Z" fill="#263238"/>
    <path d="M627.27 68.4109C627.38 68.4909 623.01 74.8409 617.5 82.5909C611.99 90.3409 607.42 96.5909 607.3 96.4709C607.18 96.3509 611.56 90.0409 617.07 82.2909C622.58 74.5409 627.15 68.3309 627.27 68.4109Z" fill="#263238"/>
    <path d="M639.07 97.1896C639.07 97.3296 633.99 98.4996 627.67 99.7996C621.35 101.1 616.19 102.04 616.16 101.9C616.13 101.76 621.23 100.59 627.56 99.2896C633.89 97.9896 639 97.0496 639.07 97.1896Z" fill="#263238"/>
    <path d="M299 234.539L263.6 416.339L259 440.139L495 438.999C505.6 438.949 515 429.539 518.39 415.559L560.25 243.929C562.84 233.319 557.16 222.279 549.12 222.289L310.2 222.539C305 222.529 300.34 227.449 299 234.539Z" fill="#2691EA"/>
    <g opacity="0.5">
        <path opacity="0.5" d="M299 234.539L263.6 416.339L259 440.139L495 438.999C505.6 438.949 515 429.539 518.39 415.559L560.25 243.929C562.84 233.319 557.16 222.279 549.12 222.289L310.2 222.539C305 222.529 300.34 227.449 299 234.539Z" fill="black"/>
    </g>
    <path d="M472.39 403.999L447.39 202.589C446.39 194.339 439.8 188.179 432.03 188.209L377.23 188.379C375.193 188.402 373.183 188.839 371.321 189.665C369.459 190.49 367.785 191.686 366.4 193.179L340.4 220.849L188 221.669C178.69 221.719 171.53 230.539 172.76 240.439L195.97 426.589C196.97 434.829 203.56 440.979 211.31 440.969L476.96 440.439C506.54 441.049 509.37 432.319 509.37 432.319C475.41 439.829 472.39 404.049 472.39 403.999Z" fill="#2691EA"/>
    <g opacity="0.5">
        <path opacity="0.5" d="M357.84 363.721L348.88 373.341L279.88 311.261L288.84 301.641L357.84 363.721Z" fill="white"/>
        <path opacity="0.5" d="M345.13 299.51L355.03 308.42L292.6 375.47L282.69 366.56L345.13 299.51Z" fill="white"/>
    </g>
    <path d="M510.32 103.781C509.996 103.645 509.718 103.419 509.518 103.13C509.318 102.841 509.204 102.502 509.19 102.151L508.79 92.8709C508.776 92.5826 508.829 92.2949 508.945 92.0307C509.062 91.7664 509.238 91.5329 509.46 91.3485C509.682 91.1642 509.944 91.0341 510.226 90.9686C510.507 90.903 510.799 90.9038 511.08 90.9709C511.854 91.138 512.655 91.1452 513.432 90.9922C514.209 90.8391 514.947 90.5291 515.6 90.0809C516.201 89.7002 516.718 89.2004 517.119 88.6122C517.52 88.024 517.796 87.3599 517.93 86.6609C518.021 85.9532 517.968 85.2344 517.776 84.5473C517.583 83.8602 517.255 83.2187 516.81 82.6609C516.341 82.0262 515.752 81.4902 515.076 81.0835C514.4 80.6769 513.65 80.4075 512.87 80.2909C511.297 80.2034 509.74 80.6495 508.451 81.5569C507.163 82.4643 506.218 83.7799 505.77 85.2909C505.621 85.7487 505.3 86.1313 504.876 86.3589C504.452 86.5865 503.956 86.6415 503.492 86.5127C503.028 86.3838 502.631 86.0808 502.385 85.667C502.139 85.2531 502.062 84.7602 502.17 84.2909C502.85 81.9143 504.328 79.8445 506.355 78.4295C508.382 77.0144 510.835 76.3404 513.3 76.5209C514.583 76.6919 515.819 77.119 516.934 77.777C518.049 78.4349 519.02 79.3102 519.79 80.3509C520.539 81.3154 521.087 82.4204 521.401 83.6005C521.716 84.7805 521.79 86.0116 521.62 87.2209C521.393 88.4285 520.921 89.5767 520.233 90.5948C519.545 91.613 518.656 92.4795 517.62 93.1409C516.12 94.151 514.367 94.7224 512.56 94.7909L512.87 101.951C512.882 102.265 512.814 102.578 512.672 102.859C512.531 103.141 512.321 103.382 512.062 103.56C511.802 103.739 511.502 103.849 511.189 103.88C510.876 103.912 510.56 103.864 510.27 103.741L510.32 103.781Z" fill="#2691EA"/>
    <path d="M513.06 107.58C513.081 107.882 513.012 108.184 512.862 108.447C512.712 108.709 512.487 108.922 512.216 109.057C511.945 109.192 511.64 109.243 511.34 109.205C511.039 109.166 510.757 109.039 510.529 108.841C510.301 108.642 510.137 108.38 510.057 108.087C509.978 107.795 509.987 107.486 510.084 107.199C510.18 106.912 510.36 106.66 510.599 106.476C510.839 106.291 511.128 106.181 511.43 106.16C511.631 106.146 511.832 106.17 512.023 106.234C512.214 106.297 512.39 106.398 512.542 106.53C512.693 106.662 512.817 106.823 512.906 107.003C512.995 107.184 513.048 107.38 513.06 107.58Z" fill="#2691EA"/>
    <path d="M478.19 90.6905C478.233 90.4926 478.263 90.2922 478.28 90.0905C478.28 89.6505 478.39 89.0905 478.47 88.3005C478.568 87.3305 478.732 86.3683 478.96 85.4205C479.09 84.8605 479.16 84.2405 479.36 83.6105C479.56 82.9805 479.76 82.3005 479.98 81.6105C481.138 78.1917 482.825 74.9759 484.98 72.0805C487.804 68.3311 491.385 65.2171 495.49 62.9405C497.827 61.6231 500.315 60.5955 502.9 59.8805C505.69 59.1409 508.564 58.7645 511.45 58.7605C512.97 58.736 514.491 58.8162 516 59.0005C516.77 59.0805 517.53 59.2805 518.3 59.4105C519.079 59.5438 519.847 59.7309 520.6 59.9705C523.752 60.8513 526.75 62.2104 529.49 64.0005C535.582 67.9517 540.223 73.7786 542.71 80.6005C544.05 84.2547 544.727 88.1185 544.71 92.0105C544.751 96.0199 544.042 100.002 542.62 103.75L542.17 104.89L542.11 105.04L542.17 105.19C544.68 110.96 547.17 116.63 549.52 122.12L549.94 121.64L534.94 115.89L534.76 115.82L534.61 115.96C530.642 119.805 525.784 122.609 520.47 124.12C515.929 125.371 511.175 125.643 506.521 124.921C501.867 124.199 497.419 122.498 493.47 119.93C490.236 117.81 487.386 115.155 485.04 112.08C481.641 107.592 479.439 102.314 478.64 96.7405C478.52 95.7405 478.42 94.9005 478.33 94.1405C478.24 93.3805 478.33 92.7605 478.28 92.2305C478.23 91.7005 478.28 91.3505 478.28 91.0605C478.33 91.0529 478.375 91.0268 478.407 90.9873C478.438 90.9478 478.453 90.898 478.449 90.8477C478.446 90.7974 478.423 90.7504 478.386 90.7161C478.349 90.6818 478.3 90.6627 478.25 90.6627C478.2 90.6627 478.151 90.6818 478.114 90.7161C478.077 90.7504 478.054 90.7974 478.051 90.8477C478.047 90.898 478.062 90.9478 478.094 90.9873C478.125 91.0268 478.17 91.0529 478.22 91.0605C478.22 91.3505 478.22 91.7405 478.22 92.2305C478.22 92.7205 478.22 93.4005 478.22 94.1605C478.22 94.9205 478.39 95.7905 478.49 96.7805C478.819 99.1857 479.392 101.551 480.2 103.84C481.345 106.864 482.885 109.722 484.78 112.34C487.135 115.47 490.006 118.175 493.27 120.34C497.267 122.972 501.778 124.724 506.504 125.479C511.23 126.234 516.062 125.975 520.68 124.72C526.058 123.193 530.977 120.363 535 116.48L534.67 116.55L549.67 122.33L550.42 122.62L550.09 121.85C547.71 116.36 545.25 110.7 542.75 104.92V105.21L543.21 104.04C544.669 100.21 545.395 96.1392 545.35 92.0405C545.381 88.0658 544.704 84.1174 543.35 80.3805C540.809 73.4226 536.065 67.485 529.84 63.4705C527.031 61.6387 523.954 60.2554 520.72 59.3705C519.955 59.1283 519.173 58.9444 518.38 58.8205C517.6 58.6805 516.83 58.4805 516.05 58.4105C514.521 58.2206 512.981 58.1338 511.44 58.1505C508.508 58.1629 505.589 58.5596 502.76 59.3305C500.141 60.0743 497.619 61.1285 495.25 62.4705C491.104 64.803 487.501 67.9901 484.68 71.8205C482.531 74.7639 480.867 78.0317 479.75 81.5005C479.54 82.2205 479.34 82.9105 479.16 83.5005C479.001 84.1033 478.874 84.7142 478.78 85.3305C478.566 86.2849 478.425 87.2544 478.36 88.2305C478.3 89.0005 478.26 89.5905 478.23 90.0305C478.188 90.2478 478.175 90.4697 478.19 90.6905Z" fill="#263238"/>
</svg>
